<?xml version="1.0" encoding="UTF-8" standalone="no"?>
<!DOCTYPE svg PUBLIC "-//W3C//DTD SVG 1.1//EN" "http://www.w3.org/Graphics/SVG/1.1/DTD/svg11.dtd">
<!-- Created with Vectornator (http://vectornator.io/) -->
<svg height="100%" stroke-miterlimit="10" style="fill-rule:nonzero;clip-rule:evenodd;stroke-linecap:round;stroke-linejoin:round;" version="1.1" viewBox="0 0 1920 1080" width="100%" xml:space="preserve" xmlns="http://www.w3.org/2000/svg" xmlns:vectornator="http://vectornator.io" xmlns:xlink="http://www.w3.org/1999/xlink">
<defs/>
<clipPath id="ArtboardFrame">
<rect height="1080" width="1920" x="0" y="0"/>
</clipPath>
<g clip-path="url(#ArtboardFrame)" id="Layer-1" vectornator:layerName="Layer 1">
<path d="M-216.565-168.392L2192.23-168.392C2196.03-168.392 2199.11-165.312 2199.11-161.512L2199.11 1548.41C2199.11 1552.21 2196.03 1555.29 2192.23 1555.29L-216.565 1555.29C-220.365 1555.29-223.445 1552.21-223.445 1548.41L-223.445-161.512C-223.445-165.312-220.365-168.392-216.565-168.392Z" fill="#000000" fill-rule="nonzero" opacity="0" stroke="#ffffff" stroke-linecap="butt" stroke-linejoin="round" stroke-width="1"/>
<g opacity="1">
<g opacity="1">
<path d="M222.531-7.125C221.702-7.14364 220.848-7.05997 220-6.90625C216.113-6.20147 213.146-3.69543 211.406-0.46875C56.1959 158.203 103.799 109.533 50 164.531C35.1905 179.671 20.3725 194.798 5.5625 209.938C1.78741 213.797-1.97491 217.672-5.75 221.531C-8.37998 224.22-11.0048 226.472-12 230.344C-12.516 232.351-12.5335 234.454-12.0625 236.469C-11.5036 238.859-10.0122 241.361-8.9375 243.531C-8.40016 244.616-7.88104 245.696-7.34375 246.781C-3.91966 253.697-0.485976 260.615 2.9375 267.531C18.2106 298.388 33.4769 329.237 48.75 360.094C112.446 488.781 176.12 617.482 239.781 746.188C281.895 831.33 324.011 916.482 366.125 1001.62C376.38 1022.36 386.651 1043.08 396.906 1063.81C399.004 1068.05 401.09 1072.29 403.188 1076.53C403.868 1077.91 404.563 1079.28 405.25 1080.66C405.338 1080.83 405.395 1081.02 405.5 1081.19C405.81 1081.68 405.919 1082.85 406.469 1082.66C413.934 1080.02 420.962 1076.35 428.219 1073.19C428.276 1073.16 428.199 1073.06 428.188 1073C428.153 1072.81 428.129 1072.6 428.094 1072.41C427.955 1071.64 427.826 1070.89 427.688 1070.12C427.026 1066.46 426.349 1062.79 425.688 1059.12C422.944 1043.95 420.212 1028.8 417.469 1013.62C406.209 951.347 394.955 889.058 383.688 826.781C334.013 552.223 383.668 826.773 234.5 3.125C233.424-2.8098 228.335-6.99449 222.531-7.125ZM214.094 30.5625C331.089 675.229 299.077 498.946 341.625 733.125C356.271 813.736 370.906 894.328 385.562 974.938C386.628 980.8 387.684 986.669 388.75 992.531C370.296 955.316 351.86 918.09 333.406 880.875C271.93 756.898 210.443 632.931 149 508.938C118.167 446.715 87.3334 384.504 56.5 322.281C46.2411 301.578 35.9776 280.859 25.7188 260.156C22.3086 253.274 18.8789 246.382 15.4688 239.5C14.8294 238.21 14.2017 236.915 13.5625 235.625C13.928 235.251 14.2908 234.874 14.6562 234.5C19.0113 230.046 23.3637 225.61 27.7188 221.156C40.4936 208.093 53.256 195.032 66.0312 181.969C115.381 131.506 102.795 144.37 214.094 30.5625ZM426.344 1068.31C426.573 1068.62 426.722 1069.16 426.938 1069.5C426.738 1069.1 426.543 1068.71 426.344 1068.31Z" fill="#ffffff" stroke="none"/>
</g>
<g opacity="1">
<path d="M174.469 575.062C172.146 575.088 170.1 575.906 168.25 577.031C45.7442 611.414 81.2115 601.472 37.6875 613.688C27.3317 616.594 16.9818 619.503 6.625 622.406C4.82382 622.911 3.01993 623.433 1.21875 623.938C-0.36374 624.381-1.98285 624.769-3.4375 625.562C-5.53076 626.705-7.24726 628.413-8.40625 630.5C-9.41259 632.312-9.96059 634.339-10 636.406C-10.035 638.243-9.55552 640.083-9.1875 641.875C-8.72807 644.112-8.27193 646.356-7.8125 648.594C-7.4743 650.241-7.11945 651.884-6.78125 653.531C-6.22855 656.223-5.6777 658.902-5.125 661.594C0.0215828 686.655 5.16592 711.72 10.3125 736.781C27.4606 820.285 44.5535 903.8 61.6562 987.312C66.1802 1009.4 70.6948 1031.5 75.2188 1053.59C76.4251 1059.48 77.6374 1065.39 78.8438 1071.28C79.6055 1075 80.0627 1079.02 82.5625 1082.06C83.6182 1083.35 84.8794 1084.43 86.3438 1085.22C87.3483 1085.76 88.3905 1086.14 89.5 1086.41C93.5051 1087.36 97.2354 1085.88 101 1084.75C102.828 1084.2 104.641 1083.64 106.469 1083.09C108.754 1082.41 111.059 1081.72 113.344 1081.03C116.543 1080.07 119.738 1079.12 122.938 1078.16C126.594 1077.06 130.25 1075.97 133.906 1074.88C147.16 1070.9 160.403 1066.91 173.656 1062.94C175.027 1062.53 176.41 1062.13 177.781 1061.72C178.695 1061.44 179.617 1061.15 180.531 1060.88C181.891 1060.47 183.369 1060.13 184.656 1059.53C184.987 1059.38 185.328 1059.28 185.625 1059.06C186.725 1058.27 188.129 1057.7 188.812 1056.53C190.321 1053.95 190.94 1050.95 192 1048.16C192.085 1047.93 192.002 1047.48 192 1047.25C191.993 1046.58 191.976 1045.89 191.969 1045.22C191.944 1042.8 191.931 1040.39 191.906 1037.97C191.838 1031.29 191.757 1024.62 191.688 1017.94C191.401 990.312 191.13 962.688 190.844 935.062C190.379 890.159 189.894 845.247 189.406 800.344C188.636 729.362 189.405 800.351 187.094 587.406C187.017 580.514 181.361 574.986 174.469 575.062ZM162.312 603.25C164.059 757.466 163.75 730.187 164.469 793.656C165.112 850.415 165.766 907.179 166.438 963.938C166.659 982.656 166.872 1001.34 167.094 1020.06C167.169 1026.44 167.236 1032.84 167.312 1039.22C163.879 1040.26 160.434 1041.31 157 1042.34C144.211 1046.21 131.414 1050.04 118.625 1053.91C112.827 1055.66 107.017 1057.4 101.219 1059.16C99.8882 1052.72 98.5805 1046.28 97.25 1039.84C92.9867 1019.23 88.732 998.641 84.4688 978.031C68.6391 901.507 52.7881 824.97 37 748.438C31.767 723.071 26.5142 697.711 21.2812 672.344C19.5464 663.934 17.8286 655.535 16.0938 647.125C15.9137 646.252 15.7426 645.373 15.5625 644.5C18.7703 643.598 21.9795 642.683 25.1875 641.781C37.7936 638.239 50.3937 634.698 63 631.156C96.1035 621.857 95.1296 622.122 162.312 603.25Z" fill="#ffffff" stroke="none"/>
</g>
<g opacity="1">
<path d="M181.156 1034.88C174.679 1034.07 168.801 1038.68 168 1045.16C167.199 1051.63 171.804 1057.51 178.281 1058.31C230.124 1064.73 281.942 1071.17 333.781 1077.62C337.604 1078.1 341.427 1078.59 345.25 1079.06C336.616 1081.05 327.977 1083.02 319.344 1085C258.988 1098.86 198.625 1112.71 138.281 1126.62C122.07 1130.36 105.866 1134.13 89.6562 1137.88C89.0632 1138.01 88.468 1138.14 87.875 1138.28C88.7076 1136.04 89.5424 1133.8 90.375 1131.56C97.0894 1113.49 103.786 1095.41 110.5 1077.34C112.898 1070.88 109.618 1063.71 103.156 1061.31C96.694 1058.91 89.5234 1062.19 87.125 1068.66C78.6707 1091.46 70.2043 1114.29 61.75 1137.09C60.7929 1139.68 59.8321 1142.23 58.875 1144.81C57.3655 1148.89 55.1424 1153.32 56.125 1157.78C56.2992 1158.57 56.5239 1159.38 56.8438 1160.12C57.2094 1160.98 57.6513 1161.81 58.1875 1162.56C58.7493 1163.35 59.4044 1164.07 60.125 1164.72C60.8081 1165.33 61.5784 1165.85 62.375 1166.31C64.1122 1167.31 66.0748 1167.8 68.0625 1167.91C70.3546 1168.03 72.7785 1167.3 75 1166.78C77.251 1166.26 79.499 1165.74 81.75 1165.22C84.001 1164.7 86.2803 1164.18 88.5312 1163.66C112.392 1158.12 136.238 1152.62 160.094 1147.06C227.61 1131.34 295.116 1115.57 362.625 1099.81C378.377 1096.14 394.123 1092.49 409.875 1088.81C410.775 1088.6 411.694 1088.37 412.594 1088.16C414.874 1087.62 418.036 1087.1 419.906 1085.75C420.781 1085.12 421.789 1084.54 422.406 1083.66C423.605 1081.93 425.006 1080.14 425.281 1078.06C425.633 1075.4 425.103 1072.62 424.188 1070.09C423.605 1068.49 422.158 1067.35 420.938 1066.16C420.318 1065.55 419.509 1065.16 418.75 1064.75C416.459 1063.5 412.487 1063.31 409.906 1063C408.686 1062.85 407.47 1062.71 406.25 1062.56C404.42 1062.34 402.58 1062.1 400.75 1061.88C398.31 1061.58 395.878 1061.3 393.438 1061C358.054 1056.69 322.692 1052.31 287.312 1047.97C251.933 1043.62 216.533 1039.24 181.156 1034.88Z" fill="#ffffff" stroke="none"/>
</g>
<g opacity="1">
<path d="M264.125 186.656C262.226 186.529 260.33 186.641 258.594 187.312C257.878 187.589 257.178 187.868 256.531 188.281C255.636 188.854 254.715 189.464 254 190.25C253.102 191.238 252.277 192.319 251.719 193.531C251.144 194.781 250.82 196.165 250.656 197.531C250.52 198.667 250.663 199.808 250.844 200.938C250.976 201.766 251.286 202.563 251.594 203.344C252.447 205.507 254.487 207.611 255.969 209.375C256.438 209.934 256.905 210.504 257.375 211.062C258.311 212.177 259.251 213.292 260.188 214.406C261.584 216.068 262.979 217.713 264.375 219.375C266.219 221.57 268.062 223.774 269.906 225.969C295.391 256.304 320.89 286.633 346.375 316.969C447.171 436.95 547.891 556.961 648.656 676.969C732.599 776.941 816.555 876.936 900.5 976.906C921.233 1001.6 941.983 1026.28 962.719 1050.97C967.598 1056.78 972.465 1062.6 977.344 1068.41C978.227 1069.46 979.093 1070.64 980.062 1071.62C980.362 1071.93 980.595 1072.74 980.969 1072.53C987.889 1068.73 994.411 1064.21 1001.12 1060.06C1001.15 1060.05 1000.98 1059.53 1000.97 1059.5C1000.78 1058.8 1000.57 1058.11 1000.38 1057.41C999.51 1054.26 998.647 1051.11 997.781 1047.97C993.935 1034 990.096 1020.03 986.25 1006.06C973.974 961.472 961.687 916.871 949.406 872.281C893.381 668.858 949.408 872.279 781.25 262.031C779.518 255.749 773.291 252.008 767 253.156C384.607 202.592 505.455 218.591 374.688 201.281C344.321 197.262 313.96 193.238 283.594 189.219C280.953 188.869 278.297 188.506 275.656 188.156C273.676 187.894 271.699 187.637 269.719 187.375C267.934 187.139 266.024 186.784 264.125 186.656ZM291 214.125C300.033 215.317 309.061 216.527 318.094 217.719C355.064 222.596 392.031 227.462 429 232.344C539.055 246.878 450.706 235.19 759.188 275.938C898.784 782.071 855.732 625.935 904 800.938C920.297 860.026 936.595 919.103 952.906 978.188C956.031 989.507 959.156 1000.84 962.281 1012.16C957.32 1006.26 952.367 1000.37 947.406 994.469C913.225 953.828 879.03 913.199 844.844 872.562C717.409 721.083 589.966 569.604 462.531 418.125C420.146 367.742 377.779 317.331 335.406 266.938C321.234 250.083 307.047 233.23 292.875 216.375C292.246 215.627 291.629 214.873 291 214.125ZM997.75 1054.34C997.962 1054.53 998.168 1054.85 998.375 1055.06C998.349 1055.03 998.308 1055 998.281 1054.97C998.106 1054.76 997.925 1054.55 997.75 1054.34Z" fill="#ffffff" stroke="none"/>
</g>
<g opacity="1">
<path d="M713.688-16.3438C712.759-16.3368 711.84-16.2821 710.938-16.0625C709.811-15.7882 708.668-15.4429 707.656-14.875C706.566-14.2626 705.56-13.4582 704.688-12.5625C703.901-11.756 703.295-10.7981 702.75-9.8125C702.321-9.0369 702.028-8.19486 701.781-7.34375C700.758-3.81896 702.19 0.718962 702.938 4.1875C703.316 5.94507 703.684 7.71114 704.062 9.46875C707.545 25.6387 711.048 41.7988 714.531 57.9688C729.343 126.733 716.478 67.205 758.875 264.281C758.576 267.666 759.576 271.151 762.062 273.844C766.74 278.907 774.624 279.208 779.688 274.531C970.875 97.8102 907.179 156.755 970.875 97.8125C985.333 84.4335 999.792 71.0665 1014.25 57.6875C1017.94 54.275 1021.62 50.85 1025.31 47.4375C1026.16 46.6502 1027.02 45.8499 1027.88 45.0625C1027.91 45.03 1028.56 44.4394 1028.56 44.4375C1027.03 37.5086 1027.23 29.9285 1023.97 23.625C1023 21.7542 1019.76 23.3621 1017.66 23.3125C1017.35 23.3053 1017.08 23.4474 1016.78 23.5312C1015.9 23.783 1015 24.1197 1014.12 24.4062C1013.75 24.5297 1013.38 24.6266 1013 24.75C1007.36 26.6014 1001.73 28.4611 996.094 30.3125C967.611 39.6656 939.136 49.0441 910.656 58.4062C896.736 62.9821 882.826 67.5491 868.906 72.125C864.222 73.665 859.529 75.21 854.844 76.75C854.603 76.8293 854.366 76.9207 854.125 77C853.957 76.8858 853.793 76.7705 853.625 76.6562C850.364 74.4337 847.104 72.2226 843.844 70C834.062 63.3322 824.282 56.6678 814.5 50C788.416 32.2193 762.334 14.437 736.25-3.34375C734.076-4.82548 731.892-6.32991 729.719-7.8125C728.27-8.80089 726.824-9.79262 725.375-10.7812C721.901-13.1521 718.139-16.3771 713.688-16.3438ZM731.125 22.0625C736.667 25.8598 742.208 29.6402 747.75 33.4375C774.876 52.0253 801.999 70.631 829.125 89.2188C833.103 91.945 837.084 94.6488 841.062 97.375C843.821 99.2649 846.473 101.433 849.844 102.094C853.926 102.894 857.372 101.411 861.125 100.188C863.567 99.3913 866.027 98.6086 868.469 97.8125C880.392 93.9252 892.296 90.0435 904.219 86.1562C926.261 78.9698 948.302 71.7808 970.344 64.5938C960.005 74.1252 949.679 83.6532 939.344 93.1875C885.639 142.729 904.082 125.739 778.281 241.875C753.778 127.676 755.475 135.655 744.094 82.5312C739.8 62.4898 735.481 42.4477 731.188 22.4062C731.163 22.2925 731.149 22.1762 731.125 22.0625Z" fill="#ffffff" stroke="none"/>
</g>
<g opacity="1">
<path d="M980.281-14.2188C978.894-14.1205 977.512-13.7997 976.219-13.25C974.511-12.5245 972.89-11.2457 971.375-10.1875C969.422-8.82309 967.454-7.45663 965.5-6.09375C963.367-4.6061 961.258-3.11266 959.125-1.625C941.334 10.7811 923.53 23.1845 905.719 35.5625C890.486 46.1485 875.264 56.7265 860.031 67.3125C855.259 70.6289 850.491 73.9649 845.719 77.2812C844.548 78.0951 843.208 78.8236 842.125 79.75C840.897 80.8004 839.551 81.7465 838.531 83C837.648 84.0858 837.15 85.4475 836.5 86.6875C836.03 87.5856 835.674 88.5169 835.25 89.4375C833.34 93.5805 831.41 97.732 829.5 101.875C823.769 114.304 818.035 126.723 812.312 139.156C793.452 180.14 774.676 221.146 755.875 262.156C753.007 268.424 755.763 275.85 762.031 278.719C768.299 281.587 775.694 278.831 778.562 272.562C796.465 233.371 814.404 194.187 832.25 154.969C838.129 142.05 844.006 129.111 849.875 116.188C852.181 111.111 854.476 106.046 856.781 100.969C857.162 100.13 857.525 99.2761 857.906 98.4375C858.488 98.0279 859.074 97.6284 859.656 97.2188C861.439 95.9648 863.218 94.6914 865 93.4375C870.644 89.4667 876.293 85.502 881.938 81.5312C905.465 64.9785 929.009 48.4219 952.562 31.9062C960.477 26.3569 968.367 20.8307 976.281 15.2812C977.705 14.283 979.139 13.2793 980.562 12.2812C982.593 13.9902 984.625 15.6973 986.656 17.4062C994.971 24.4034 1003.31 31.409 1011.62 38.4062C1016.62 42.6101 1024.05 41.9608 1028.25 36.9688C1032.45 31.9767 1031.84 24.5163 1026.84 20.3125C1017.74 12.6428 1008.63 4.98223 999.531-2.6875C997.948-4.02137 996.364-5.35363 994.781-6.6875C991.835-9.17048 988.265-12.8186 984.406-13.8438C983.048-14.2045 981.668-14.317 980.281-14.2188Z" fill="#ffffff" stroke="none"/>
</g>
<g opacity="1">
<path d="M1536.88-16.875C1535.25-16.8209 1533.63-16.4426 1532.06-15.7188C1215.08 131.045 1320.76 82.1413 1215.09 131.062C1183.75 145.575 1152.38 160.081 1121.03 174.594C1112.3 178.637 1103.58 182.676 1094.84 186.719C1092.5 187.805 1090.16 188.883 1087.81 189.969C1087.16 190.272 1086.5 190.572 1085.84 190.875C1085.64 190.971 1085.13 191.099 1084.97 191.281C1082.75 193.821 1080.11 196.051 1078.31 198.906C1077.62 200 1077.88 201.464 1077.75 202.75C1077.7 203.227 1077.82 203.711 1077.88 204.188C1078.05 205.651 1078.4 207.12 1078.69 208.562C1078.81 209.156 1078.94 209.75 1079.06 210.344C1079.18 210.937 1079.29 211.532 1079.41 212.125C1079.64 213.312 1079.89 214.501 1080.12 215.688C1082.74 228.74 1085.36 241.792 1087.97 254.844C1098.89 309.426 1109.81 364.015 1120.75 418.594C1133.35 481.478 1145.96 544.367 1158.56 607.25C1161.42 621.488 1164.27 635.731 1167.12 649.969C1167.6 652.342 1168.09 654.689 1168.56 657.062C1168.98 659.153 1169.31 661.294 1170.28 663.219C1171.54 665.726 1173.57 667.811 1176.09 669.062C1177.98 669.999 1180.05 670.457 1182.16 670.406C1183.77 670.367 1185.62 669.937 1187.19 669.656C1188.85 669.36 1190.5 669.046 1192.16 668.75C1201.28 667.121 1210.41 665.504 1219.53 663.875C1257.25 657.135 1294.97 650.396 1332.69 643.656C1476.62 617.939 1620.56 592.217 1764.5 566.5C1807.02 558.903 1849.54 551.306 1892.06 543.719C1895.74 543.063 1899.39 542.405 1903.06 541.75C1905.87 541.249 1908.69 540.751 1911.5 540.25C1913.87 539.827 1916.22 539.391 1918.59 538.969C1923.24 538.14 1927.84 537.815 1931.12 533.781C1931.6 533.199 1932.05 532.596 1932.41 531.938C1932.8 531.224 1933.13 530.463 1933.38 529.688C1933.87 528.12 1934.02 526.632 1933.91 525C1933.6 520.677 1930.46 517.216 1928.03 513.875C1922.86 506.751 1917.7 499.624 1912.53 492.5C1888.91 459.958 1865.28 427.417 1841.66 394.875C1744.13 260.516 1835.75 386.744 1549.12-8.21875C1548.97-8.69222 1548.84-9.16196 1548.62-9.625C1546.45-14.3167 1541.74-17.0372 1536.88-16.875ZM1533.84 10.9688C1797.39 374.3 1719.98 267.56 1813.03 395.875C1835.25 426.511 1857.47 457.145 1879.69 487.781C1886.95 497.792 1894.21 507.802 1901.47 517.812C1900.14 518.048 1898.82 518.296 1897.5 518.531C1882.87 521.134 1868.23 523.744 1853.59 526.344C1810.52 533.996 1767.45 541.629 1724.38 549.281C1594.87 572.287 1465.38 595.306 1335.88 618.312C1301.05 624.499 1266.2 630.688 1231.38 636.875C1219.77 638.937 1208.17 641 1196.56 643.062C1194.71 643.392 1192.85 643.702 1191 644.031C1190.84 643.216 1190.66 642.409 1190.5 641.594C1188.72 632.693 1186.93 623.775 1185.16 614.875C1180.07 589.361 1174.97 563.857 1169.88 538.344C1154.83 462.99 1139.8 387.634 1124.75 312.281C1119.77 287.362 1114.79 262.45 1109.81 237.531C1108.15 229.225 1106.5 220.9 1104.84 212.594C1104.65 211.647 1104.47 210.696 1104.28 209.75C1104.62 209.595 1104.95 209.436 1105.28 209.281C1111.46 206.422 1117.63 203.546 1123.81 200.688C1160.95 183.502 1198.11 166.31 1235.25 149.125C1334.78 103.071 1257.36 138.902 1533.84 10.9688Z" fill="#ffffff" stroke="none"/>
</g>
<g opacity="1">
<path d="M1090.75 193.406C1084.27 192.619 1078.38 197.24 1077.59 203.719C1050.89 423.31 1024.09 642.868 997.219 862.438C990.94 913.732 984.641 965.048 978.375 1016.34C977.911 1020.14 977.433 1023.92 976.969 1027.72C976.621 1030.57 976.285 1033.4 975.938 1036.25C975.706 1038.15 975.482 1040.07 975.25 1041.97C975.076 1043.39 974.893 1044.8 974.719 1046.22C974.603 1047.17 974.491 1048.11 974.375 1049.06C974.149 1050.91 973.778 1052.87 974.125 1054.72C974.276 1055.52 974.37 1056.36 974.719 1057.09C975.43 1058.6 975.985 1060.34 977.281 1061.38C979.516 1063.16 982.122 1064.76 984.938 1065.28C987.251 1065.71 989.638 1064.79 991.875 1064.06C992.988 1063.7 993.869 1062.83 994.781 1062.09C995.254 1061.71 995.636 1061.21 996.031 1060.75C997.551 1058.98 998.601 1056.16 999.594 1054.09C1000.08 1053.08 1000.58 1052.08 1001.06 1051.06C1001.54 1050.06 1002.05 1049.04 1002.53 1048.03C1003.25 1046.54 1003.94 1045.05 1004.66 1043.56C1016.33 1019.22 1028.02 994.877 1039.69 970.531C1089.27 867.112 1138.77 763.66 1188.31 660.219C1191.29 654.001 1188.65 646.538 1182.44 643.562C1176.22 640.587 1168.76 643.22 1165.78 649.438C1121.24 742.544 1076.69 835.641 1032.16 928.75C1023.94 945.925 1015.74 963.102 1007.53 980.281C1008.37 973.355 1009.2 966.427 1010.03 959.5C1017.6 896.716 1025.15 833.94 1032.72 771.156C1055.41 582.952 1078.22 394.749 1101.06 206.562C1101.85 200.084 1097.23 194.193 1090.75 193.406Z" fill="#ffffff" stroke="none"/>
</g>
<g opacity="1">
<path d="M1020.88 17.0312C1019.34 16.9596 1017.78 17.1853 1016.25 17.75C1010.13 20.0089 1006.99 26.8146 1009.25 32.9375C1030.78 91.4363 1051.85 150.079 1073.34 208.594C1075.73 215.061 1082.91 218.386 1089.38 216C1095.84 213.614 1099.17 206.436 1096.78 199.969C1075.12 141.518 1053.03 83.2173 1031.41 24.75C1029.71 20.1578 1025.47 17.2463 1020.88 17.0312Z" fill="#ffffff" stroke="none"/>
</g>
<g opacity="1">
<path d="M1914.16 522.125C1912.63 522.293 1911.11 522.767 1909.69 523.562C1600.79 696.131 1291.64 868.286 982.719 1040.81C976.701 1044.18 974.575 1051.76 977.938 1057.78C981.3 1063.8 988.889 1065.96 994.906 1062.59C1303.74 889.905 1612.36 716.835 1921.22 544.188C1926.92 541.004 1928.97 533.822 1925.78 528.125C1923.39 523.852 1918.73 521.622 1914.16 522.125Z" fill="#ffffff" stroke="none"/>
</g>
<g opacity="1">
<path d="M351 709.469C347.982 709.66 345.063 710.989 342.906 713.438C338.593 718.335 339.04 725.812 343.938 730.125C479.609 849.679 614.984 969.598 750.625 1089.19C755.798 1093.74 763.663 1093.24 768.219 1088.06C772.775 1082.89 772.298 1074.99 767.125 1070.44C631.362 950.987 495.295 831.861 359.562 712.375C357.114 710.218 354.018 709.277 351 709.469Z" fill="#ffffff" stroke="none"/>
</g>
<g opacity="1">
<path d="M538.156 514.594C537.328 514.547 536.478 514.594 535.625 514.719C528.804 515.716 524.097 522.054 525.094 528.875C545.058 664.848 565.426 800.739 585.344 936.719C586.287 943.176 592.292 947.662 598.75 946.719C605.208 945.775 609.694 939.77 608.75 933.312C588.922 797.32 569.562 661.249 549.781 525.25C548.909 519.282 543.952 514.923 538.156 514.594Z" fill="#ffffff" stroke="none"/>
</g>
<g opacity="1">
<path d="" fill="#ffffff" stroke="none"/>
</g>
<g opacity="1">
<path d="M1599.5 704.344C1594.91 704.666 1590.74 707.682 1589.16 712.312C1587.04 718.487 1590.33 725.198 1596.5 727.312C1665.14 750.835 1733.8 774.359 1802.44 797.906C1825.32 805.755 1848.18 813.619 1871.06 821.469C1877.98 823.842 1884.89 826.22 1891.81 828.594C1890.62 830.944 1889.44 833.306 1888.25 835.656C1882.17 847.665 1876.08 859.647 1870 871.656C1847.07 916.948 1824.15 962.271 1801.22 1007.56C1793.49 1022.83 1785.76 1038.08 1778.03 1053.34C1776.11 1057.15 1774.18 1060.95 1772.25 1064.75C1771.51 1064.35 1770.77 1063.94 1770.03 1063.53C1761.72 1059 1753.41 1054.44 1745.09 1049.91C1721.26 1036.91 1697.43 1023.93 1673.59 1010.94C1568.29 953.543 1462.93 896.244 1357.59 838.906C1351.54 835.612 1343.98 837.851 1340.69 843.906C1337.39 849.961 1339.63 857.519 1345.69 860.812C1451.61 918.399 1557.52 976.002 1663.47 1033.53C1690.65 1048.29 1717.82 1063.06 1745 1077.81C1751.66 1081.43 1758.31 1085.04 1764.97 1088.66C1766.08 1089.26 1767.2 1089.84 1768.31 1090.44C1769.87 1091.28 1771.5 1092.28 1773.19 1092.81C1775 1093.38 1776.93 1093.59 1778.81 1093.34C1781.89 1092.94 1784.7 1091.44 1786.78 1089.16C1788.6 1087.17 1789.84 1084.15 1791.03 1081.78C1791.91 1080.04 1792.78 1078.31 1793.66 1076.56C1799.81 1064.35 1805.97 1052.12 1812.12 1039.91C1839.56 985.433 1866.97 930.973 1894.41 876.5C1896.82 871.712 1899.25 866.913 1901.66 862.125C1903.39 858.684 1905.11 855.254 1906.84 851.812C1908.22 849.09 1909.6 846.348 1910.97 843.625C1912.24 841.096 1913.51 838.592 1914.78 836.062C1915.94 833.761 1917.09 831.457 1918.25 829.156C1918.9 827.859 1919.6 826.577 1919.97 825.156C1920.63 822.59 1920.49 819.873 1919.5 817.406C1919.07 816.333 1918.51 815.384 1917.81 814.469C1915.03 810.838 1910.56 809.805 1906.47 808.406C1901.65 806.759 1896.85 805.117 1892.03 803.469C1872.36 796.74 1852.67 790.01 1833 783.281C1756.71 757.191 1680.43 731.086 1604.16 704.969C1602.61 704.44 1601.03 704.236 1599.5 704.344Z" fill="#ffffff" stroke="none"/>
</g>
<g opacity="1">
<path d="M1354.47 833.844C1349.88 833.409 1345.26 835.692 1342.94 840C1321.8 879.179 1300.66 918.334 1279.5 957.5C1274.65 966.472 1269.82 975.466 1264.97 984.438C1264.05 986.133 1263.14 987.804 1262.22 989.5C1261.61 990.632 1260.92 991.805 1260.53 993.031C1259.91 994.974 1259.73 997.014 1260.09 999.031C1260.23 999.799 1260.44 1000.55 1260.72 1001.28C1261.92 1004.42 1264.4 1006.9 1267.47 1008.22C1269.34 1009.02 1271.47 1009.26 1273.47 1009.59C1275.99 1010.02 1278.51 1010.42 1281.03 1010.84C1282.89 1011.16 1284.77 1011.47 1286.62 1011.78C1289.06 1012.19 1291.47 1012.59 1293.91 1013C1323.23 1017.92 1352.56 1022.9 1381.88 1027.84C1509.36 1049.35 1636.83 1070.78 1764.34 1092.12C1771.14 1093.26 1777.58 1088.67 1778.72 1081.88C1779.85 1075.08 1775.27 1068.64 1768.47 1067.5C1657.58 1049.03 1546.69 1030.6 1435.78 1012.28C1399.6 1006.31 1363.43 1000.35 1327.25 994.375C1315.63 992.455 1304 990.523 1292.38 988.594C1291.56 988.459 1290.75 988.322 1289.94 988.188C1293.69 981.225 1297.44 974.275 1301.19 967.312C1322.02 928.607 1342.89 889.912 1363.75 851.219C1366.85 845.475 1364.68 838.285 1358.94 835.188C1357.5 834.413 1356 833.989 1354.47 833.844Z" fill="#ffffff" stroke="none"/>
</g>
<g opacity="1">
<path d="M596.75 922.594C591.907 923.042 587.567 926.323 586 931.25C583.911 937.819 587.556 944.817 594.125 946.906C684.496 975.612 774.842 1004.35 865.25 1032.94C893.281 1041.8 921.313 1050.67 949.344 1059.53C958.273 1062.36 967.195 1065.18 976.125 1068C978.12 1068.63 980.13 1069.28 982.125 1069.91C982.632 1070.07 983.139 1070.25 983.656 1070.38C985.323 1070.76 986.946 1071.38 988.656 1071.44C990.263 1071.49 991.855 1070.97 993.438 1070.69C995.372 1070.34 997.303 1069.78 999.219 1069.34C1005.64 1067.87 1012.05 1066.38 1018.47 1064.91C1038.43 1060.31 1058.41 1055.71 1078.38 1051.12C1145.07 1035.82 1211.76 1020.57 1278.47 1005.31C1284.83 1003.86 1288.8 997.519 1287.34 991.156C1285.89 984.794 1279.58 980.828 1273.22 982.281C1209.78 996.764 1146.33 1011.21 1082.88 1025.66C1061.56 1030.51 1040.23 1035.35 1018.91 1040.19C1011.84 1041.79 1004.76 1043.4 997.688 1045C995.117 1045.58 992.57 1046.17 990 1046.75C989.794 1046.8 989.588 1046.85 989.375 1046.88C988.896 1046.72 988.416 1046.59 987.938 1046.44C986.941 1046.12 985.934 1045.79 984.938 1045.47C982.009 1044.53 979.084 1043.59 976.156 1042.66C966.595 1039.6 957.03 1036.53 947.469 1033.47C918.282 1024.13 889.124 1014.8 859.938 1005.47C773.882 977.947 687.776 950.546 601.688 923.125C600.045 922.603 598.364 922.444 596.75 922.594Z" fill="#ffffff" stroke="none"/>
</g>
<g opacity="1">
<path d="M1269.84 980.5C1266.66 980.291 1263.37 981.29 1260.78 983.562C1202.45 1034.78 1144.15 1085.99 1085.91 1137.31C1066.39 1154.5 1046.86 1171.68 1027.34 1188.88C1023.44 1192.32 1019.53 1195.78 1015.62 1199.22C1014.7 1189.01 1013.74 1178.8 1012.81 1168.59C1009.57 1132.97 1006.37 1097.35 1003.16 1061.72C1002.57 1055.22 996.812 1050.42 990.312 1051C983.812 1051.58 979.009 1057.34 979.594 1063.84C983.353 1105.76 987.117 1147.67 990.844 1189.59C991.664 1198.82 992.501 1208.06 993.312 1217.28C993.46 1218.96 993.603 1220.64 993.75 1222.31C993.872 1223.71 993.924 1225.12 994.312 1226.47C994.786 1228.11 995.57 1229.73 996.688 1231.03C997.244 1231.68 997.822 1232.29 998.5 1232.81C999.264 1233.4 1000.09 1233.91 1000.97 1234.31C1001.86 1234.72 1002.82 1235.03 1003.78 1235.22C1004.65 1235.39 1005.55 1235.42 1006.44 1235.41C1007.18 1235.39 1007.9 1235.3 1008.62 1235.16C1012.63 1234.35 1015.86 1230.86 1018.81 1228.28C1020.14 1227.13 1021.46 1225.97 1022.78 1224.81C1038.48 1211.11 1054.17 1197.39 1069.88 1183.69C1139.05 1123.29 1208.18 1062.83 1277.25 1002.31C1282.43 997.767 1282.95 989.901 1278.41 984.719C1276.13 982.128 1273.03 980.709 1269.84 980.5Z" fill="#ffffff" stroke="none"/>
</g>
<g opacity="1">
<path d="M1590.66-66.9375C1588.43-67.0615 1586.14-66.8761 1583.88-66.8125C1576.68-66.6102 1569.48-66.421 1562.28-66.2188C1534.4-65.4349 1506.54-64.6589 1478.66-63.875C1374.33-60.9419 1269.98-57.9778 1165.66-55.0312C942.616-48.7316 719.605-42.3948 496.562-36.1562C429.11-34.2696 361.64-32.3867 294.188-30.5C273.952-29.934 253.736-29.3776 233.5-28.8125C227.204-28.6367 220.889-28.4565 214.594-28.2812C213.265-28.2443 211.884-28.3331 210.562-28.1875C208.976-28.0126 207.319-28.0571 205.812-27.5312C204.205-26.9701 202.827-25.8588 201.375-24.9688C200.701-24.5554 200.128-24.0126 199.5-23.5312C198.559-22.8092 197.629-22.097 196.688-21.375C191.666-17.5242 186.646-13.6631 181.625-9.8125C164.679 3.18333 147.728 16.1917 130.781 29.1875C74.2932 72.5069 17.8006 115.806-38.6875 159.125C-43.8665 163.096-44.8462 170.509-40.875 175.688C-36.9038 180.867-29.4915 181.846-24.3125 177.875C29.356 136.728 83.019 95.5847 136.688 54.4375C154.577 40.7218 172.485 27.0282 190.375 13.3125C196.024 8.98122 201.663 4.64359 207.312 0.3125C209.196-1.1312 211.086-2.58755 212.969-4.03125C213.211-4.21714 213.445-4.40786 213.688-4.59375C214.21-4.60821 214.727-4.61054 215.25-4.625C217.498-4.68717 219.752-4.75033 222-4.8125C228.745-4.99902 235.505-5.18939 242.25-5.375C262.486-5.93183 282.702-6.47442 302.938-7.03125C364.095-8.71412 425.249-10.4109 486.406-12.0938C669.879-17.1424 853.37-22.1267 1036.84-27.125C1160.06-30.4817 1283.25-33.8148 1406.47-37.1875C1447.39-38.3076 1488.33-39.4424 1529.25-40.5625C1543.19-40.9441 1557.12-41.3059 1571.06-41.6875C1575.56-41.8106 1580.07-41.9394 1584.56-42.0625C1584.57-42.0628 1584.58-42.0622 1584.59-42.0625C1584.77-41.803 1584.95-41.5407 1585.12-41.2812C1587.55-37.7816 1589.98-34.2809 1592.41-30.7812C1599.91-19.9322 1607.43-9.09825 1614.94 1.75C1644.73 44.793 1674.51 87.8365 1704.31 130.875C1787.17 250.543 1870.02 370.207 1952.88 489.875C1956.8 495.542 1964.58 496.956 1970.25 493.031C1975.92 489.107 1977.33 481.354 1973.41 475.688C1883.98 346.593 1794.55 217.501 1705.12 88.4062C1679.92 52.0219 1654.71 15.6305 1629.5-20.75C1622.47-30.8946 1615.44-41.0436 1608.41-51.1875C1606.71-53.636 1605.01-56.0827 1603.31-58.5312C1601.54-61.0899 1599.94-63.5713 1597.12-65.1875C1595.06-66.3744 1592.89-66.8135 1590.66-66.9375Z" fill="#ffffff" stroke="none"/>
</g>
<g opacity="1">
<path d="M148.281 514.531C146.764 514.3 145.175 514.348 143.594 514.75C72.0404 532.875 0.377535 550.546-71.1875 568.625C-77.8686 570.322-81.9155 577.131-80.2188 583.812C-78.522 590.494-71.7124 594.509-65.0312 592.812C6.48805 574.553 77.8753 555.87 149.406 537.656C155.732 536.05 159.575 529.638 157.969 523.312C156.764 518.568 152.834 515.226 148.281 514.531Z" fill="#ffffff" stroke="none"/>
</g>
<g opacity="1">
<path d="M444.25 781.188C442.742 780.9 441.158 780.907 439.562 781.25C433.182 782.623 429.127 788.901 430.5 795.281C460.264 933.832 489.532 1072.47 519.25 1211.03C520.7 1217.77 527.355 1222.07 534.094 1220.62C540.833 1219.18 545.106 1212.52 543.656 1205.78C513.756 1067.26 483.447 928.844 453.594 790.312C452.564 785.527 448.774 782.049 444.25 781.188Z" fill="#ffffff" stroke="none"/>
</g>
<g opacity="1">
<path d="" fill="#ffffff" stroke="none"/>
</g>
</g>
</g>
</svg>
